<svg xmlns="http://www.w3.org/2000/svg" xmlns:xlink="http://www.w3.org/1999/xlink" width="1920" height="300.601" viewBox="0 0 1920 300.601">
  <defs>
    <linearGradient id="linear-gradient" x1="-0.25" y1="0.5" x2="1.25" y2="0.5" gradientUnits="objectBoundingBox">
      <stop offset="0" stop-color="#451acf"/>
      <stop offset="0.67" stop-color="#f3859a" stop-opacity="0.545"/>
      <stop offset="0.857" stop-color="#451acf" stop-opacity="0.416"/>
      <stop offset="0.88" stop-color="#451acf" stop-opacity="0.4"/>
      <stop offset="1" stop-color="#451acf"/>
    </linearGradient>
    <linearGradient id="linear-gradient-2" x1="-0.25" y1="0.5" x2="1.25" y2="0.5" gradientUnits="objectBoundingBox">
      <stop offset="0" stop-color="#b765b3" stop-opacity="0.659"/>
      <stop offset="0.57" stop-color="#f3859a" stop-opacity="0.522"/>
      <stop offset="0.575" stop-color="#f0839b" stop-opacity="0.522"/>
      <stop offset="0.857" stop-color="#451acf" stop-opacity="0.408"/>
      <stop offset="0.88" stop-color="#451acf" stop-opacity="0.4"/>
      <stop offset="1" stop-color="#451acf" stop-opacity="0"/>
    </linearGradient>
    <linearGradient id="linear-gradient-3" x1="-0.25" y1="0.5" x2="1.25" y2="0.5" gradientUnits="objectBoundingBox">
      <stop offset="0" stop-color="#f79688" stop-opacity="0.439"/>
      <stop offset="0.156" stop-color="#f79688" stop-opacity="0.498"/>
      <stop offset="0.405" stop-color="#562fd2" stop-opacity="0.596"/>
      <stop offset="0.413" stop-color="#5830d1" stop-opacity="0.6"/>
      <stop offset="1" stop-color="#f3859a" stop-opacity="0.502"/>
    </linearGradient>
  </defs>
  <g id="Objects" transform="translate(0 -222.015)">
    <g id="Shape_3" data-name="Shape 3" opacity="0.251">
      <path id="Shape_3-2" data-name="Shape 3" d="M0,440c158,39.027,315.551,41.082,422-12.172,66.514-33.275,182.09-160.355,318-135.094,27,3.138,133.526,76.412,207.428,54.4,81.508-24.28,197.49-111.436,279.434-111.436,115.676,0,200.292,79.465,295.2,79.465,62.442,0,151.588-48.313,241.8-3.738C1838.24,348.177,1919,336.85,1919,336.85V520H0S0,545.071,0,440Z" fill="#d75193"/>
      <path id="Gradient_Overlay" data-name="Gradient Overlay" d="M0,440c158,39.027,315.551,41.082,422-12.172,66.514-33.275,182.09-160.355,318-135.094,27,3.138,133.526,76.412,207.428,54.4,81.508-24.28,197.49-111.436,279.434-111.436,115.676,0,200.292,79.465,295.2,79.465,62.442,0,151.588-48.313,241.8-3.738C1838.24,348.177,1919,336.85,1919,336.85V520H0S0,545.071,0,440Z" fill="url(#linear-gradient)"/>
    </g>
    <g id="Shape_2" data-name="Shape 2" opacity="0.251">
      <path id="Shape_2-2" data-name="Shape 2" d="M1919,415c-203.853,22.54-324.336-116.725-483-103-247.3,21.392-384.39,208.9-529,116.183-62.612-40.145-182.09-160.39-318-135.123C562,296.2,426.9,387.017,329,350c-79.552-30.08-145.056-88-227-88C65.859,262,0,274,0,274L.15,520.372H1919S1919,520.094,1919,415Z" fill="rgba(215,81,147,0)"/>
      <path id="Gradient_Overlay-2" data-name="Gradient Overlay" d="M1919,415c-203.853,22.54-324.336-116.725-483-103-247.3,21.392-384.39,208.9-529,116.183-62.612-40.145-182.09-160.39-318-135.123C562,296.2,426.9,387.017,329,350c-79.552-30.08-145.056-88-227-88C65.859,262,0,274,0,274L.15,520.372H1919S1919,520.094,1919,415Z" fill="url(#linear-gradient-2)"/>
    </g>
    <g id="Shape_1" data-name="Shape 1" opacity="0.4">
      <path id="Shape_1-2" data-name="Shape 1" d="M0,401c69,34,145.407-4.571,219.325-1.571C262.392,399.677,339.4,426.812,389,419c119.27-18.787,114.678-124.033,251-126.281,114.944-1.9,189.081,122.1,336,81.072,66.193-18.485,163.18-101.913,225-128.089,216.85-91.82,314.375,113.9,511.233,99.887C1803.962,339.06,1920,371.343,1920,371.343V520H0S.5,400.5,0,401Z" fill="#d75193"/>
      <path id="Shape_1-3" data-name="Shape 1" d="M0,401c69,34,145.407-4.571,219.325-1.571C262.392,399.677,339.4,426.812,389,419c119.27-18.787,114.678-124.033,251-126.281,114.944-1.9,189.081,122.1,336,81.072,66.193-18.485,163.18-101.913,225-128.089,216.85-91.82,314.375,113.9,511.233,99.887C1803.962,339.06,1920,371.343,1920,371.343V520H0S.5,400.5,0,401Z" fill="url(#linear-gradient-3)"/>
    </g>
  </g>
</svg>
